<svg class="diagram-root" style="background: #f5f6f6" xmlns="http://www.w3.org/2000/svg" xmlns:xlink="http://www.w3.org/1999/xlink"><style>.diagram-root { font-family: "Helvetica Neue", sans-serif; font-size: 12px; } .t { overflow: visible; } .t-bg { y: 40; fill: #fff;   } .th { fill: #005aa0;   } .tht { fill: #fff; font-size: 14px;  } .tf { fill: #323c46; overflow: visible; } .tf.pk { fill: #005aa0; font-weight: bold; } .tf.fk { font-weight: bold; } .ty { fill: #adb1b5; font-weight: normal; text-anchor: end; } .r { fill: transparent; stroke: #c3c3c3; stroke-width: 1; } .l { stroke: 1; } .i { fill: #c2c7ce; stroke: #c2c7ce; } .i.ix { fill: #afb3b6; stroke: #000; } .fa { fill: transparent; overflow: visible; } .fa .bg.hover { fill: #f7f7f7; } .c { cy: 12; r: 4; stroke: #d2d2dc; fill: #d2d2dc; } .hr { fill: transparent; stroke: #323c46; stroke-opacity: 0.035; stroke-width: 13; } .dc { stroke: #fa5a3c; fill: #fa5a3c; } .x { stroke: white; stroke-width: 1; } .hl .th { fill: #1b9bff; } .hl .tht {  } .fhl .bg { fill: #e7f4ff; } .fhls .bg {  } .r.hl { stroke: #1b9bff; } .dim { opacity: 0.25; }</style><g class="drawing-wrapper" transform="translate(-70, -57) scale(1,1)"><g class="rs"><path d="M 413 284 m -1, 0 a 1,1 0 1,0 2,0 a 1,1 0 1,0 -2,0 M 413 284 m -0.5, 0 a 0.5,0.5 0 1,0 1,0 a 0.5,0.5 0 1,0 -1,0  M413 284 L413 284 401 284 M 413 290 m -1, 0 a 1,1 0 1,0 2,0 a 1,1 0 1,0 -2,0 M 413 290 m -0.5, 0 a 0.5,0.5 0 1,0 1,0 a 0.5,0.5 0 1,0 -1,0  M413 290 L413 290 406 284 413 278 M 413 278 m -1, 0 a 1,1 0 1,0 2,0 a 1,1 0 1,0 -2,0 M 413 278 m -0.5, 0 a 0.5,0.5 0 1,0 1,0 a 0.5,0.5 0 1,0 -1,0  M401 284 Q 363.6 284, 326.2 214 T 251.4 144 M 239.4 144 m -1, 0 a 1,1 0 1,0 2,0 a 1,1 0 1,0 -2,0 M 239.4 144 m -0.5, 0 a 0.5,0.5 0 1,0 1,0 a 0.5,0.5 0 1,0 -1,0  M239.4 144 L239.4 144 251.4 144 M245.4 150 L245.4 150 245.4 138" id="h4123789742" class="r"></path><path d="M 413 334 m -1, 0 a 1,1 0 1,0 2,0 a 1,1 0 1,0 -2,0 M 413 334 m -0.5, 0 a 0.5,0.5 0 1,0 1,0 a 0.5,0.5 0 1,0 -1,0  M413 334 L413 334 401 334 M 413 340 m -1, 0 a 1,1 0 1,0 2,0 a 1,1 0 1,0 -2,0 M 413 340 m -0.5, 0 a 0.5,0.5 0 1,0 1,0 a 0.5,0.5 0 1,0 -1,0  M413 340 L413 340 406 334 413 328 M 413 328 m -1, 0 a 1,1 0 1,0 2,0 a 1,1 0 1,0 -2,0 M 413 328 m -0.5, 0 a 0.5,0.5 0 1,0 1,0 a 0.5,0.5 0 1,0 -1,0  M401 334 Q 363.09 334, 325.18 374 T 249.36 414 M 237.36 414 m -1, 0 a 1,1 0 1,0 2,0 a 1,1 0 1,0 -2,0 M 237.36 414 m -0.5, 0 a 0.5,0.5 0 1,0 1,0 a 0.5,0.5 0 1,0 -1,0  M237.36 414 L237.36 414 249.36 414 M243.36 420 L243.36 420 243.36 408" id="h3559049542" class="r"></path><path d="M 533.71 359 m -1, 0 a 1,1 0 1,0 2,0 a 1,1 0 1,0 -2,0 M 533.71 359 m -0.5, 0 a 0.5,0.5 0 1,0 1,0 a 0.5,0.5 0 1,0 -1,0  M533.71 359 L533.71 359 545.71 359 M 533.71 365 m -1, 0 a 1,1 0 1,0 2,0 a 1,1 0 1,0 -2,0 M 533.71 365 m -0.5, 0 a 0.5,0.5 0 1,0 1,0 a 0.5,0.5 0 1,0 -1,0  M533.71 365 L533.71 365 540.71 359 533.71 353 M 533.71 353 m -1, 0 a 1,1 0 1,0 2,0 a 1,1 0 1,0 -2,0 M 533.71 353 m -0.5, 0 a 0.5,0.5 0 1,0 1,0 a 0.5,0.5 0 1,0 -1,0  M545.71 359 Q 562.79 359, 579.86 283.5 T 614 208 M 626 208 m -1, 0 a 1,1 0 1,0 2,0 a 1,1 0 1,0 -2,0 M 626 208 m -0.5, 0 a 0.5,0.5 0 1,0 1,0 a 0.5,0.5 0 1,0 -1,0  M626 208 L626 208 614 208 M620 214 L620 214 620 202" id="h3089693579" class="r"></path><path d="M 239.4 219 m -1, 0 a 1,1 0 1,0 2,0 a 1,1 0 1,0 -2,0 M 239.4 219 m -0.5, 0 a 0.5,0.5 0 1,0 1,0 a 0.5,0.5 0 1,0 -1,0  M239.4 219 L239.4 219 251.4 219 M 239.4 225 m -1, 0 a 1,1 0 1,0 2,0 a 1,1 0 1,0 -2,0 M 239.4 225 m -0.5, 0 a 0.5,0.5 0 1,0 1,0 a 0.5,0.5 0 1,0 -1,0  M239.4 225 L239.4 225 246.4 219 239.4 213 M 239.4 213 m -1, 0 a 1,1 0 1,0 2,0 a 1,1 0 1,0 -2,0 M 239.4 213 m -0.5, 0 a 0.5,0.5 0 1,0 1,0 a 0.5,0.5 0 1,0 -1,0  M251.4 219 C 301.4 219, 302.624 414, 249.36 414 M 237.36 414 m -1, 0 a 1,1 0 1,0 2,0 a 1,1 0 1,0 -2,0 M 237.36 414 m -0.5, 0 a 0.5,0.5 0 1,0 1,0 a 0.5,0.5 0 1,0 -1,0  M237.36 414 L237.36 414 249.36 414 M243.36 420 L243.36 420 243.36 408" id="h2363888071" class="r"></path></g><g class="hrs"></g><g class="ts"><svg width="95.36" height="100" x="626" y="151" id="h1234641711" class="t"><rect height="40" width="95.36" class="th"></rect><text x="13" y="25" class="tht">Categories</text><rect height="60" width="95.36" class="t-bg"></rect><text x="13" y="61" class="tf pk">id<tspan x="82.36" class="ty">int</tspan></text><path d="M7,14A2,2 0 0,1 5,12A2,2 0 0,1 7,10A2,2 0 0,1 9,12A2,2 0 0,1 7,14M12.65,10C11.83,7.67 9.61,6 7, 6A6, 6 0 0, 0 1, 12A6, 6 0 0, 0 7, 18C9.61, 18 11.83, 16.33 12.65, 14H17V18H21V14H23V10H12.65Z" class="i pk" transform="translate(49.686171875, 48) scale(0.65)"></path><text x="13" y="86" class="tf">name<tspan x="82.36" class="ty">text</tspan></text></svg><svg width="147.4" height="150" x="92" y="87" id="h3889921393" class="t"><rect height="40" width="147.4" class="th"></rect><text x="13" y="25" class="tht">Users</text><rect height="110" width="147.4" class="t-bg"></rect><text x="13" y="61" class="tf pk">id<tspan x="134.4" class="ty">int</tspan></text><path d="M7,14A2,2 0 0,1 5,12A2,2 0 0,1 7,10A2,2 0 0,1 9,12A2,2 0 0,1 7,14M12.65,10C11.83,7.67 9.61,6 7, 6A6, 6 0 0, 0 1, 12A6, 6 0 0, 0 7, 18C9.61, 18 11.83, 16.33 12.65, 14H17V18H21V14H23V10H12.65Z" class="i pk" transform="translate(101.726171875, 48) scale(0.65)"></path><text x="13" y="86" class="tf">name<tspan x="134.4" class="ty">text</tspan></text><text x="13" y="111" class="tf">password<tspan x="134.4" class="ty">text</tspan></text><text x="13" y="136" class="tf fk">preferred_region<tspan x="134.4" class="ty">int</tspan></text></svg><svg width="95.36" height="100" x="142" y="357" id="h41485699" class="t"><rect height="40" width="95.36" class="th"></rect><text x="13" y="25" class="tht">Regions</text><rect height="60" width="95.36" class="t-bg"></rect><text x="13" y="61" class="tf pk">id<tspan x="82.36" class="ty">int</tspan></text><path d="M7,14A2,2 0 0,1 5,12A2,2 0 0,1 7,10A2,2 0 0,1 9,12A2,2 0 0,1 7,14M12.65,10C11.83,7.67 9.61,6 7, 6A6, 6 0 0, 0 1, 12A6, 6 0 0, 0 7, 18C9.61, 18 11.83, 16.33 12.65, 14H17V18H21V14H23V10H12.65Z" class="i pk" transform="translate(49.686171875, 48) scale(0.65)"></path><text x="13" y="86" class="tf">name<tspan x="82.36" class="ty">text</tspan></text></svg><svg width="120.71" height="225" x="413" y="152" id="h1611266215" class="t"><rect height="40" width="120.71" class="th"></rect><text x="13" y="25" class="tht">Posts</text><rect height="185" width="120.71" class="t-bg"></rect><text x="13" y="61" class="tf pk">id<tspan x="107.71" class="ty">int</tspan></text><path d="M7,14A2,2 0 0,1 5,12A2,2 0 0,1 7,10A2,2 0 0,1 9,12A2,2 0 0,1 7,14M12.65,10C11.83,7.67 9.61,6 7, 6A6, 6 0 0, 0 1, 12A6, 6 0 0, 0 7, 18C9.61, 18 11.83, 16.33 12.65, 14H17V18H21V14H23V10H12.65Z" class="i pk" transform="translate(75.036171875, 48) scale(0.65)"></path><text x="13" y="86" class="tf">title<tspan x="107.71" class="ty">string</tspan></text><text x="13" y="111" class="tf">text<tspan x="107.71" class="ty">string</tspan></text><text x="13" y="136" class="tf fk">user_id<tspan x="107.71" class="ty">int</tspan></text><text x="13" y="161" class="tf">location<tspan x="107.71" class="ty">text</tspan></text><text x="13" y="186" class="tf fk">region_id<tspan x="107.71" class="ty">int</tspan></text><text x="13" y="211" class="tf fk">category_id<tspan x="107.71" class="ty">int</tspan></text></svg></g></g><text class="qdbd-link" x="10" y="20">www.quickdatabasediagrams.com</text></svg>