<svg class="diagram-root" style="background: #f5f6f6" xmlns="http://www.w3.org/2000/svg" xmlns:xlink="http://www.w3.org/1999/xlink"><style>.diagram-root { font-family: "Helvetica Neue", sans-serif; font-size: 12px; } .t { overflow: visible; } .t-bg { y: 40; fill: #fff;   } .th { fill: #005aa0;   } .tht { fill: #fff; font-size: 14px;  } .tf { fill: #323c46; overflow: visible; } .tf.pk { fill: #005aa0; font-weight: bold; } .tf.fk { font-weight: bold; } .ty { fill: #adb1b5; font-weight: normal; text-anchor: end; } .r { fill: transparent; stroke: #c3c3c3; stroke-width: 1; } .l { stroke: 1; } .i { fill: #c2c7ce; stroke: #c2c7ce; } .i.ix { fill: #afb3b6; stroke: #000; } .fa { fill: transparent; overflow: visible; } .fa .bg.hover { fill: #f7f7f7; } .c { cy: 12; r: 4; stroke: #d2d2dc; fill: #d2d2dc; } .hr { fill: transparent; stroke: #323c46; stroke-opacity: 0.035; stroke-width: 13; } .dc { stroke: #fa5a3c; fill: #fa5a3c; } .x { stroke: white; stroke-width: 1; } .hl .th { fill: #1b9bff; } .hl .tht {  } .fhl .bg { fill: #e7f4ff; } .fhls .bg {  } .r.hl { stroke: #1b9bff; } .dim { opacity: 0.25; }</style><g class="drawing-wrapper" transform="translate(2, 18) scale(1,1)"><g class="rs"><path d="M 254 119 m -1, 0 a 1,1 0 1,0 2,0 a 1,1 0 1,0 -2,0 M 254 119 m -0.5, 0 a 0.5,0.5 0 1,0 1,0 a 0.5,0.5 0 1,0 -1,0  M254 119 L254 119 242 119 M 254 125 m -1, 0 a 1,1 0 1,0 2,0 a 1,1 0 1,0 -2,0 M 254 125 m -0.5, 0 a 0.5,0.5 0 1,0 1,0 a 0.5,0.5 0 1,0 -1,0  M254 125 L254 125 247 119 254 113 M 254 113 m -1, 0 a 1,1 0 1,0 2,0 a 1,1 0 1,0 -2,0 M 254 113 m -0.5, 0 a 0.5,0.5 0 1,0 1,0 a 0.5,0.5 0 1,0 -1,0  M242 119 Q 225.85 119, 209.69 226 T 177.38 333 M 165.38 333 m -1, 0 a 1,1 0 1,0 2,0 a 1,1 0 1,0 -2,0 M 165.38 333 m -0.5, 0 a 0.5,0.5 0 1,0 1,0 a 0.5,0.5 0 1,0 -1,0  M165.38 333 L165.38 333 177.38 333 M171.38 339 L171.38 339 171.38 327" id="h3883713910" class="r"></path><path d="M 254 144 m -1, 0 a 1,1 0 1,0 2,0 a 1,1 0 1,0 -2,0 M 254 144 m -0.5, 0 a 0.5,0.5 0 1,0 1,0 a 0.5,0.5 0 1,0 -1,0  M254 144 L254 144 242 144 M 254 150 m -1, 0 a 1,1 0 1,0 2,0 a 1,1 0 1,0 -2,0 M 254 150 m -0.5, 0 a 0.5,0.5 0 1,0 1,0 a 0.5,0.5 0 1,0 -1,0  M254 150 L254 150 247 144 254 138 M 254 138 m -1, 0 a 1,1 0 1,0 2,0 a 1,1 0 1,0 -2,0 M 254 138 m -0.5, 0 a 0.5,0.5 0 1,0 1,0 a 0.5,0.5 0 1,0 -1,0  M242 144 Q 222.51 144, 203.02 115.5 T 164.03 87 M 152.03 87 m -1, 0 a 1,1 0 1,0 2,0 a 1,1 0 1,0 -2,0 M 152.03 87 m -0.5, 0 a 0.5,0.5 0 1,0 1,0 a 0.5,0.5 0 1,0 -1,0  M152.03 87 L152.03 87 164.03 87 M158.03 93 L158.03 93 158.03 81" id="h457750255" class="r"></path><path d="M 393.4 194 m -1, 0 a 1,1 0 1,0 2,0 a 1,1 0 1,0 -2,0 M 393.4 194 m -0.5, 0 a 0.5,0.5 0 1,0 1,0 a 0.5,0.5 0 1,0 -1,0  M393.4 194 L393.4 194 405.4 194 M 393.4 200 m -1, 0 a 1,1 0 1,0 2,0 a 1,1 0 1,0 -2,0 M 393.4 200 m -0.5, 0 a 0.5,0.5 0 1,0 1,0 a 0.5,0.5 0 1,0 -1,0  M393.4 200 L393.4 200 400.4 194 393.4 188 M 393.4 188 m -1, 0 a 1,1 0 1,0 2,0 a 1,1 0 1,0 -2,0 M 393.4 188 m -0.5, 0 a 0.5,0.5 0 1,0 1,0 a 0.5,0.5 0 1,0 -1,0  M405.4 194 Q 423.05 194, 440.7 143 T 476 92 M 488 92 m -1, 0 a 1,1 0 1,0 2,0 a 1,1 0 1,0 -2,0 M 488 92 m -0.5, 0 a 0.5,0.5 0 1,0 1,0 a 0.5,0.5 0 1,0 -1,0  M488 92 L488 92 476 92 M482 98 L482 98 482 86" id="h923335418" class="r"></path><path d="M 600.71 142 m -1, 0 a 1,1 0 1,0 2,0 a 1,1 0 1,0 -2,0 M 600.71 142 m -0.5, 0 a 0.5,0.5 0 1,0 1,0 a 0.5,0.5 0 1,0 -1,0  M600.71 142 L600.71 142 612.71 142 M 600.71 148 m -1, 0 a 1,1 0 1,0 2,0 a 1,1 0 1,0 -2,0 M 600.71 148 m -0.5, 0 a 0.5,0.5 0 1,0 1,0 a 0.5,0.5 0 1,0 -1,0  M600.71 148 L600.71 148 607.71 142 600.71 136 M 600.71 136 m -1, 0 a 1,1 0 1,0 2,0 a 1,1 0 1,0 -2,0 M 600.71 136 m -0.5, 0 a 0.5,0.5 0 1,0 1,0 a 0.5,0.5 0 1,0 -1,0  M612.71 142 C 662.71 142, 776.308 344, 423.38 344 M 411.38 344 m -1, 0 a 1,1 0 1,0 2,0 a 1,1 0 1,0 -2,0 M 411.38 344 m -0.5, 0 a 0.5,0.5 0 1,0 1,0 a 0.5,0.5 0 1,0 -1,0  M411.38 344 L411.38 344 423.38 344 M417.38 350 L417.38 350 417.38 338" id="h3020454270" class="r"></path></g><g class="hrs"></g><g class="ts"><svg width="122.03" height="125" x="30" y="30" id="h16875077" class="t"><rect height="40" width="122.03" class="th"></rect><text x="13" y="25" class="tht">Doctors</text><rect height="85" width="122.03" class="t-bg"></rect><text x="13" y="61" class="tf pk">id<tspan x="109.03" class="ty">int</tspan></text><path d="M7,14A2,2 0 0,1 5,12A2,2 0 0,1 7,10A2,2 0 0,1 9,12A2,2 0 0,1 7,14M12.65,10C11.83,7.67 9.61,6 7, 6A6, 6 0 0, 0 1, 12A6, 6 0 0, 0 7, 18C9.61, 18 11.83, 16.33 12.65, 14H17V18H21V14H23V10H12.65Z" class="i pk" transform="translate(76.356171875, 48) scale(0.65)"></path><text x="13" y="86" class="tf">name<tspan x="109.03" class="ty">string</tspan></text><text x="13" y="111" class="tf">specialty<tspan x="109.03" class="ty">string</tspan></text></svg><svg width="127.38" height="150" x="38" y="276" id="h3676580549" class="t"><rect height="40" width="127.38" class="th"></rect><text x="13" y="25" class="tht">Patients</text><rect height="110" width="127.38" class="t-bg"></rect><text x="13" y="61" class="tf pk">id<tspan x="114.38" class="ty">int</tspan></text><path d="M7,14A2,2 0 0,1 5,12A2,2 0 0,1 7,10A2,2 0 0,1 9,12A2,2 0 0,1 7,14M12.65,10C11.83,7.67 9.61,6 7, 6A6, 6 0 0, 0 1, 12A6, 6 0 0, 0 7, 18C9.61, 18 11.83, 16.33 12.65, 14H17V18H21V14H23V10H12.65Z" class="i pk" transform="translate(81.706171875, 48) scale(0.65)"></path><text x="13" y="86" class="tf">name<tspan x="114.38" class="ty">string</tspan></text><text x="13" y="111" class="tf">dob<tspan x="114.38" class="ty">date</tspan></text><text x="13" y="136" class="tf">insurance<tspan x="114.38" class="ty">string</tspan></text></svg><svg width="139.4" height="175" x="254" y="37" id="h3280351983" class="t"><rect height="40" width="139.4" class="th"></rect><text x="13" y="25" class="tht">Visits</text><rect height="135" width="139.4" class="t-bg"></rect><text x="13" y="61" class="tf pk">id<tspan x="126.4" class="ty">int</tspan></text><path d="M7,14A2,2 0 0,1 5,12A2,2 0 0,1 7,10A2,2 0 0,1 9,12A2,2 0 0,1 7,14M12.65,10C11.83,7.67 9.61,6 7, 6A6, 6 0 0, 0 1, 12A6, 6 0 0, 0 7, 18C9.61, 18 11.83, 16.33 12.65, 14H17V18H21V14H23V10H12.65Z" class="i pk" transform="translate(93.726171875, 48) scale(0.65)"></path><text x="13" y="86" class="tf fk">patient_id<tspan x="126.4" class="ty">int</tspan></text><text x="13" y="111" class="tf fk">doc_id<tspan x="126.4" class="ty">int</tspan></text><text x="13" y="136" class="tf">service_date<tspan x="126.4" class="ty">date</tspan></text><text x="13" y="161" class="tf fk">diagnose_id<tspan x="126.4" class="ty">int</tspan></text><path d="M22,18V22H18V19H15V16H12L9.74,13.74C9.19,13.91 8.61,14 8,14A6,6 0 0,1 2,8A6,6 0 0,1 8,2A6,6 0 0,1 14,8C14,8.61 13.91, 9.19 13.74, 9.74L22, 18M7, 5A2, 2 0 0, 0 5, 7A2, 2 0 0, 0 7, 9A2, 2 0 0, 0 9, 7A2, 2 0 0, 0 7, 5Z" class="i uq" transform="translate(97.726171875, 150.5) scale(0.5)"></path></svg><svg width="112.71" height="125" x="488" y="35" id="h3047656030" class="t"><rect height="40" width="112.71" class="th"></rect><text x="13" y="25" class="tht">Diagnoses</text><rect height="85" width="112.71" class="t-bg"></rect><text x="13" y="61" class="tf pk">id<tspan x="99.71" class="ty">int</tspan></text><path d="M7,14A2,2 0 0,1 5,12A2,2 0 0,1 7,10A2,2 0 0,1 9,12A2,2 0 0,1 7,14M12.65,10C11.83,7.67 9.61,6 7, 6A6, 6 0 0, 0 1, 12A6, 6 0 0, 0 7, 18C9.61, 18 11.83, 16.33 12.65, 14H17V18H21V14H23V10H12.65Z" class="i pk" transform="translate(67.036171875, 48) scale(0.65)"></path><text x="13" y="86" class="tf">notes<tspan x="99.71" class="ty">string</tspan></text><text x="13" y="111" class="tf fk">disease_id<tspan x="99.71" class="ty">id</tspan></text></svg><svg width="133.38" height="125" x="278" y="287" id="h1794948770" class="t"><rect height="40" width="133.38" class="th"></rect><text x="13" y="25" class="tht">Diseases</text><rect height="85" width="133.38" class="t-bg"></rect><text x="13" y="61" class="tf pk">id<tspan x="120.38" class="ty">int</tspan></text><path d="M7,14A2,2 0 0,1 5,12A2,2 0 0,1 7,10A2,2 0 0,1 9,12A2,2 0 0,1 7,14M12.65,10C11.83,7.67 9.61,6 7, 6A6, 6 0 0, 0 1, 12A6, 6 0 0, 0 7, 18C9.61, 18 11.83, 16.33 12.65, 14H17V18H21V14H23V10H12.65Z" class="i pk" transform="translate(87.706171875, 48) scale(0.65)"></path><text x="13" y="86" class="tf">name<tspan x="120.38" class="ty">string</tspan></text><text x="13" y="111" class="tf">description<tspan x="120.38" class="ty">string</tspan></text></svg></g></g><text class="qdbd-link" x="10" y="20">www.quickdatabasediagrams.com</text></svg>