<svg class="diagram-root" style="background: #f5f6f6" xmlns="http://www.w3.org/2000/svg" xmlns:xlink="http://www.w3.org/1999/xlink"><style>.diagram-root { font-family: "Helvetica Neue", sans-serif; font-size: 12px; } .t { overflow: visible; } .t-bg { y: 40; fill: #fff;   } .th { fill: #005aa0;   } .tht { fill: #fff; font-size: 14px;  } .tf { fill: #323c46; overflow: visible; } .tf.pk { fill: #005aa0; font-weight: bold; } .tf.fk { font-weight: bold; } .ty { fill: #adb1b5; font-weight: normal; text-anchor: end; } .r { fill: transparent; stroke: #c3c3c3; stroke-width: 1; } .l { stroke: 1; } .i { fill: #c2c7ce; stroke: #c2c7ce; } .i.ix { fill: #afb3b6; stroke: #000; } .fa { fill: transparent; overflow: visible; } .fa .bg.hover { fill: #f7f7f7; } .c { cy: 12; r: 4; stroke: #d2d2dc; fill: #d2d2dc; } .hr { fill: transparent; stroke: #323c46; stroke-opacity: 0.035; stroke-width: 13; } .dc { stroke: #fa5a3c; fill: #fa5a3c; } .x { stroke: white; stroke-width: 1; } .hl .th { fill: #1b9bff; } .hl .tht {  } .fhl .bg { fill: #e7f4ff; } .fhls .bg {  } .r.hl { stroke: #1b9bff; } .dim { opacity: 0.25; }</style><g class="drawing-wrapper" transform="translate(-67, 11) scale(1,1)"><g class="rs"><path d="M 132 353 m -1, 0 a 1,1 0 1,0 2,0 a 1,1 0 1,0 -2,0 M 132 353 m -0.5, 0 a 0.5,0.5 0 1,0 1,0 a 0.5,0.5 0 1,0 -1,0  M132 353 L132 353 120 353 M 132 359 m -1, 0 a 1,1 0 1,0 2,0 a 1,1 0 1,0 -2,0 M 132 359 m -0.5, 0 a 0.5,0.5 0 1,0 1,0 a 0.5,0.5 0 1,0 -1,0  M132 359 L132 359 125 353 132 347 M 132 347 m -1, 0 a 1,1 0 1,0 2,0 a 1,1 0 1,0 -2,0 M 132 347 m -0.5, 0 a 0.5,0.5 0 1,0 1,0 a 0.5,0.5 0 1,0 -1,0  M120 353 C 1.2000000000000028 353, 27 99, 77 99 M 89 99 m -1, 0 a 1,1 0 1,0 2,0 a 1,1 0 1,0 -2,0 M 89 99 m -0.5, 0 a 0.5,0.5 0 1,0 1,0 a 0.5,0.5 0 1,0 -1,0  M89 99 L89 99 77 99 M83 105 L83 105 83 93" id="h1043936442" class="r"></path><path d="M 388 351 m -1, 0 a 1,1 0 1,0 2,0 a 1,1 0 1,0 -2,0 M 388 351 m -0.5, 0 a 0.5,0.5 0 1,0 1,0 a 0.5,0.5 0 1,0 -1,0  M388 351 L388 351 376 351 M 388 357 m -1, 0 a 1,1 0 1,0 2,0 a 1,1 0 1,0 -2,0 M 388 357 m -0.5, 0 a 0.5,0.5 0 1,0 1,0 a 0.5,0.5 0 1,0 -1,0  M388 357 L388 357 381 351 388 345 M 388 345 m -1, 0 a 1,1 0 1,0 2,0 a 1,1 0 1,0 -2,0 M 388 345 m -0.5, 0 a 0.5,0.5 0 1,0 1,0 a 0.5,0.5 0 1,0 -1,0  M376 351 Q 331.59 351, 287.18 225 T 198.36 99 M 186.36 99 m -1, 0 a 1,1 0 1,0 2,0 a 1,1 0 1,0 -2,0 M 186.36 99 m -0.5, 0 a 0.5,0.5 0 1,0 1,0 a 0.5,0.5 0 1,0 -1,0  M186.36 99 L186.36 99 198.36 99 M192.36 105 L192.36 105 192.36 93" id="h737795640" class="r"></path><path d="M 388 376 m -1, 0 a 1,1 0 1,0 2,0 a 1,1 0 1,0 -2,0 M 388 376 m -0.5, 0 a 0.5,0.5 0 1,0 1,0 a 0.5,0.5 0 1,0 -1,0  M388 376 L388 376 376 376 M 388 382 m -1, 0 a 1,1 0 1,0 2,0 a 1,1 0 1,0 -2,0 M 388 382 m -0.5, 0 a 0.5,0.5 0 1,0 1,0 a 0.5,0.5 0 1,0 -1,0  M388 382 L388 382 381 376 388 370 M 388 370 m -1, 0 a 1,1 0 1,0 2,0 a 1,1 0 1,0 -2,0 M 388 370 m -0.5, 0 a 0.5,0.5 0 1,0 1,0 a 0.5,0.5 0 1,0 -1,0  M376 376 Q 331.59 376, 287.18 237.5 T 198.36 99 M 186.36 99 m -1, 0 a 1,1 0 1,0 2,0 a 1,1 0 1,0 -2,0 M 186.36 99 m -0.5, 0 a 0.5,0.5 0 1,0 1,0 a 0.5,0.5 0 1,0 -1,0  M186.36 99 L186.36 99 198.36 99 M192.36 105 L192.36 105 192.36 93" id="h2713730703" class="r"></path><path d="M 520.06 401 m -1, 0 a 1,1 0 1,0 2,0 a 1,1 0 1,0 -2,0 M 520.06 401 m -0.5, 0 a 0.5,0.5 0 1,0 1,0 a 0.5,0.5 0 1,0 -1,0  M520.06 401 L520.06 401 532.06 401 M 520.06 407 m -1, 0 a 1,1 0 1,0 2,0 a 1,1 0 1,0 -2,0 M 520.06 407 m -0.5, 0 a 0.5,0.5 0 1,0 1,0 a 0.5,0.5 0 1,0 -1,0  M520.06 407 L520.06 407 527.06 401 520.06 395 M 520.06 395 m -1, 0 a 1,1 0 1,0 2,0 a 1,1 0 1,0 -2,0 M 520.06 395 m -0.5, 0 a 0.5,0.5 0 1,0 1,0 a 0.5,0.5 0 1,0 -1,0  M532.06 401 C 582.06 401, 590.8799999999999 557, 517.36 557 M 505.36 557 m -1, 0 a 1,1 0 1,0 2,0 a 1,1 0 1,0 -2,0 M 505.36 557 m -0.5, 0 a 0.5,0.5 0 1,0 1,0 a 0.5,0.5 0 1,0 -1,0  M505.36 557 L505.36 557 517.36 557 M511.36 563 L511.36 563 511.36 551" id="h1206223179" class="r"></path><path d="M 240.37 527 m -1, 0 a 1,1 0 1,0 2,0 a 1,1 0 1,0 -2,0 M 240.37 527 m -0.5, 0 a 0.5,0.5 0 1,0 1,0 a 0.5,0.5 0 1,0 -1,0  M240.37 527 L240.37 527 252.37 527 M 240.37 533 m -1, 0 a 1,1 0 1,0 2,0 a 1,1 0 1,0 -2,0 M 240.37 533 m -0.5, 0 a 0.5,0.5 0 1,0 1,0 a 0.5,0.5 0 1,0 -1,0  M240.37 533 L240.37 533 247.37 527 240.37 521 M 240.37 521 m -1, 0 a 1,1 0 1,0 2,0 a 1,1 0 1,0 -2,0 M 240.37 521 m -0.5, 0 a 0.5,0.5 0 1,0 1,0 a 0.5,0.5 0 1,0 -1,0  M252.37 527 Q 283.28 527, 314.19 426.5 T 376 326 M 388 326 m -1, 0 a 1,1 0 1,0 2,0 a 1,1 0 1,0 -2,0 M 388 326 m -0.5, 0 a 0.5,0.5 0 1,0 1,0 a 0.5,0.5 0 1,0 -1,0  M388 326 L388 326 376 326 M382 332 L382 332 382 320" id="h883084757" class="r"></path><path d="M 133 552 m -1, 0 a 1,1 0 1,0 2,0 a 1,1 0 1,0 -2,0 M 133 552 m -0.5, 0 a 0.5,0.5 0 1,0 1,0 a 0.5,0.5 0 1,0 -1,0  M133 552 L133 552 121 552 M 133 558 m -1, 0 a 1,1 0 1,0 2,0 a 1,1 0 1,0 -2,0 M 133 558 m -0.5, 0 a 0.5,0.5 0 1,0 1,0 a 0.5,0.5 0 1,0 -1,0  M133 558 L133 558 126 552 133 546 M 133 546 m -1, 0 a 1,1 0 1,0 2,0 a 1,1 0 1,0 -2,0 M 133 546 m -0.5, 0 a 0.5,0.5 0 1,0 1,0 a 0.5,0.5 0 1,0 -1,0  M121 552 C 69.4 552, 70 303, 120 303 M 132 303 m -1, 0 a 1,1 0 1,0 2,0 a 1,1 0 1,0 -2,0 M 132 303 m -0.5, 0 a 0.5,0.5 0 1,0 1,0 a 0.5,0.5 0 1,0 -1,0  M132 303 L132 303 120 303 M126 309 L126 309 126 297" id="h2561147591" class="r"></path><path d="M 643 142 m -1, 0 a 1,1 0 1,0 2,0 a 1,1 0 1,0 -2,0 M 643 142 m -0.5, 0 a 0.5,0.5 0 1,0 1,0 a 0.5,0.5 0 1,0 -1,0  M643 142 L643 142 631 142 M 643 148 m -1, 0 a 1,1 0 1,0 2,0 a 1,1 0 1,0 -2,0 M 643 148 m -0.5, 0 a 0.5,0.5 0 1,0 1,0 a 0.5,0.5 0 1,0 -1,0  M643 148 L643 148 636 142 643 136 M 643 136 m -1, 0 a 1,1 0 1,0 2,0 a 1,1 0 1,0 -2,0 M 643 136 m -0.5, 0 a 0.5,0.5 0 1,0 1,0 a 0.5,0.5 0 1,0 -1,0  M631 142 Q 522.84 142, 414.68 120.5 T 198.36 99 M 186.36 99 m -1, 0 a 1,1 0 1,0 2,0 a 1,1 0 1,0 -2,0 M 186.36 99 m -0.5, 0 a 0.5,0.5 0 1,0 1,0 a 0.5,0.5 0 1,0 -1,0  M186.36 99 L186.36 99 198.36 99 M192.36 105 L192.36 105 192.36 93" id="h1470270038" class="r"></path><path d="M 643 167 m -1, 0 a 1,1 0 1,0 2,0 a 1,1 0 1,0 -2,0 M 643 167 m -0.5, 0 a 0.5,0.5 0 1,0 1,0 a 0.5,0.5 0 1,0 -1,0  M643 167 L643 167 631 167 M 643 173 m -1, 0 a 1,1 0 1,0 2,0 a 1,1 0 1,0 -2,0 M 643 173 m -0.5, 0 a 0.5,0.5 0 1,0 1,0 a 0.5,0.5 0 1,0 -1,0  M643 173 L643 173 636 167 643 161 M 643 161 m -1, 0 a 1,1 0 1,0 2,0 a 1,1 0 1,0 -2,0 M 643 161 m -0.5, 0 a 0.5,0.5 0 1,0 1,0 a 0.5,0.5 0 1,0 -1,0  M631 167 Q 606.27 167, 581.53 246.5 T 532.06 326 M 520.06 326 m -1, 0 a 1,1 0 1,0 2,0 a 1,1 0 1,0 -2,0 M 520.06 326 m -0.5, 0 a 0.5,0.5 0 1,0 1,0 a 0.5,0.5 0 1,0 -1,0  M520.06 326 L520.06 326 532.06 326 M526.06 332 L526.06 332 526.06 320" id="h232825792" class="r"></path><path d="M 338 101 m -1, 0 a 1,1 0 1,0 2,0 a 1,1 0 1,0 -2,0 M 338 101 m -0.5, 0 a 0.5,0.5 0 1,0 1,0 a 0.5,0.5 0 1,0 -1,0  M338 101 L338 101 326 101 M 338 107 m -1, 0 a 1,1 0 1,0 2,0 a 1,1 0 1,0 -2,0 M 338 107 m -0.5, 0 a 0.5,0.5 0 1,0 1,0 a 0.5,0.5 0 1,0 -1,0  M338 107 L338 107 331 101 338 95 M 338 95 m -1, 0 a 1,1 0 1,0 2,0 a 1,1 0 1,0 -2,0 M 338 95 m -0.5, 0 a 0.5,0.5 0 1,0 1,0 a 0.5,0.5 0 1,0 -1,0  M326 101 Q 294.09 101, 262.18 100 T 198.36 99 M 186.36 99 m -1, 0 a 1,1 0 1,0 2,0 a 1,1 0 1,0 -2,0 M 186.36 99 m -0.5, 0 a 0.5,0.5 0 1,0 1,0 a 0.5,0.5 0 1,0 -1,0  M186.36 99 L186.36 99 198.36 99 M192.36 105 L192.36 105 192.36 93" id="h642451344" class="r"></path></g><g class="hrs"></g><g class="ts"><svg width="97.36" height="125" x="89" y="42" id="h3010508784" class="t"><rect height="40" width="97.36" class="th"></rect><text x="13" y="25" class="tht">Teams</text><rect height="85" width="97.36" class="t-bg"></rect><text x="13" y="61" class="tf pk">id<tspan x="84.36" class="ty">int</tspan></text><path d="M7,14A2,2 0 0,1 5,12A2,2 0 0,1 7,10A2,2 0 0,1 9,12A2,2 0 0,1 7,14M12.65,10C11.83,7.67 9.61,6 7, 6A6, 6 0 0, 0 1, 12A6, 6 0 0, 0 7, 18C9.61, 18 11.83, 16.33 12.65, 14H17V18H21V14H23V10H12.65Z" class="i pk" transform="translate(51.686171875, 48) scale(0.65)"></path><text x="13" y="86" class="tf">name<tspan x="84.36" class="ty">text</tspan></text><text x="13" y="111" class="tf">coach<tspan x="84.36" class="ty">text</tspan></text></svg><svg width="122.72" height="175" x="338" y="19" id="h1345225407" class="t"><rect height="40" width="122.72" class="th"></rect><text x="13" y="25" class="tht">League</text><rect height="135" width="122.72" class="t-bg"></rect><text x="13" y="61" class="tf pk">id<tspan x="109.72" class="ty">int</tspan></text><path d="M7,14A2,2 0 0,1 5,12A2,2 0 0,1 7,10A2,2 0 0,1 9,12A2,2 0 0,1 7,14M12.65,10C11.83,7.67 9.61,6 7, 6A6, 6 0 0, 0 1, 12A6, 6 0 0, 0 7, 18C9.61, 18 11.83, 16.33 12.65, 14H17V18H21V14H23V10H12.65Z" class="i pk" transform="translate(77.046171875, 48) scale(0.65)"></path><text x="13" y="86" class="tf fk">team_id<tspan x="109.72" class="ty">int</tspan></text><text x="13" y="111" class="tf">points<tspan x="109.72" class="ty">int</tspan></text><text x="13" y="136" class="tf">start_date<tspan x="109.72" class="ty">date</tspan></text><text x="13" y="161" class="tf">end_date<tspan x="109.72" class="ty">date</tspan></text></svg><svg width="95.36" height="100" x="410" y="500" id="h332749422" class="t"><rect height="40" width="95.36" class="th"></rect><text x="13" y="25" class="tht">Referees</text><rect height="60" width="95.36" class="t-bg"></rect><text x="13" y="61" class="tf pk">id<tspan x="82.36" class="ty">int</tspan></text><path d="M7,14A2,2 0 0,1 5,12A2,2 0 0,1 7,10A2,2 0 0,1 9,12A2,2 0 0,1 7,14M12.65,10C11.83,7.67 9.61,6 7, 6A6, 6 0 0, 0 1, 12A6, 6 0 0, 0 7, 18C9.61, 18 11.83, 16.33 12.65, 14H17V18H21V14H23V10H12.65Z" class="i pk" transform="translate(49.686171875, 48) scale(0.65)"></path><text x="13" y="86" class="tf">name<tspan x="82.36" class="ty">text</tspan></text></svg><svg width="127.37" height="125" x="643" y="85" id="h2412636350" class="t"><rect height="40" width="127.37" class="th"></rect><text x="13" y="25" class="tht">Score</text><rect height="85" width="127.37" class="t-bg"></rect><text x="13" y="61" class="tf pk">team_id<tspan x="114.37" class="ty">int</tspan></text><path d="M7,14A2,2 0 0,1 5,12A2,2 0 0,1 7,10A2,2 0 0,1 9,12A2,2 0 0,1 7,14M12.65,10C11.83,7.67 9.61,6 7, 6A6, 6 0 0, 0 1, 12A6, 6 0 0, 0 7, 18C9.61, 18 11.83, 16.33 12.65, 14H17V18H21V14H23V10H12.65Z" class="i pk" transform="translate(81.696171875, 48) scale(0.65)"></path><text x="13" y="86" class="tf pk">match_id<tspan x="114.37" class="ty">int</tspan></text><path d="M7,14A2,2 0 0,1 5,12A2,2 0 0,1 7,10A2,2 0 0,1 9,12A2,2 0 0,1 7,14M12.65,10C11.83,7.67 9.61,6 7, 6A6, 6 0 0, 0 1, 12A6, 6 0 0, 0 7, 18C9.61, 18 11.83, 16.33 12.65, 14H17V18H21V14H23V10H12.65Z" class="i pk" transform="translate(81.696171875, 73) scale(0.65)"></path><text x="13" y="111" class="tf">result<tspan x="114.37" class="ty">text</tspan></text></svg><svg width="132.06" height="200" x="388" y="269" id="h3829905542" class="t"><rect height="40" width="132.06" class="th"></rect><text x="13" y="25" class="tht">Matches</text><rect height="160" width="132.06" class="t-bg"></rect><text x="13" y="61" class="tf pk">id<tspan x="119.06" class="ty">int</tspan></text><path d="M7,14A2,2 0 0,1 5,12A2,2 0 0,1 7,10A2,2 0 0,1 9,12A2,2 0 0,1 7,14M12.65,10C11.83,7.67 9.61,6 7, 6A6, 6 0 0, 0 1, 12A6, 6 0 0, 0 7, 18C9.61, 18 11.83, 16.33 12.65, 14H17V18H21V14H23V10H12.65Z" class="i pk" transform="translate(86.386171875, 48) scale(0.65)"></path><text x="13" y="86" class="tf fk">teamA_id<tspan x="119.06" class="ty">int</tspan></text><text x="13" y="111" class="tf fk">teamB_id<tspan x="119.06" class="ty">int</tspan></text><text x="13" y="136" class="tf fk">referee_id<tspan x="119.06" class="ty">int</tspan></text><text x="13" y="161" class="tf">match_date<tspan x="119.06" class="ty">date</tspan></text><text x="13" y="186" class="tf">start_time<tspan x="119.06" class="ty">time</tspan></text></svg><svg width="101.37" height="125" x="132" y="246" id="h4103274130" class="t"><rect height="40" width="101.37" class="th"></rect><text x="13" y="25" class="tht">Players</text><rect height="85" width="101.37" class="t-bg"></rect><text x="13" y="61" class="tf pk">id<tspan x="88.37" class="ty">int</tspan></text><path d="M7,14A2,2 0 0,1 5,12A2,2 0 0,1 7,10A2,2 0 0,1 9,12A2,2 0 0,1 7,14M12.65,10C11.83,7.67 9.61,6 7, 6A6, 6 0 0, 0 1, 12A6, 6 0 0, 0 7, 18C9.61, 18 11.83, 16.33 12.65, 14H17V18H21V14H23V10H12.65Z" class="i pk" transform="translate(55.696171875000005, 48) scale(0.65)"></path><text x="13" y="86" class="tf">name<tspan x="88.37" class="ty">text</tspan></text><text x="13" y="111" class="tf fk">team_id<tspan x="88.37" class="ty">int</tspan></text></svg><svg width="107.37" height="125" x="133" y="445" id="h2207534861" class="t"><rect height="40" width="107.37" class="th"></rect><text x="13" y="25" class="tht">Goals</text><rect height="85" width="107.37" class="t-bg"></rect><text x="13" y="61" class="tf pk">id<tspan x="94.37" class="ty">int</tspan></text><path d="M7,14A2,2 0 0,1 5,12A2,2 0 0,1 7,10A2,2 0 0,1 9,12A2,2 0 0,1 7,14M12.65,10C11.83,7.67 9.61,6 7, 6A6, 6 0 0, 0 1, 12A6, 6 0 0, 0 7, 18C9.61, 18 11.83, 16.33 12.65, 14H17V18H21V14H23V10H12.65Z" class="i pk" transform="translate(61.696171875000005, 48) scale(0.65)"></path><text x="13" y="86" class="tf fk">match_id<tspan x="94.37" class="ty">int</tspan></text><text x="13" y="111" class="tf fk">player_id<tspan x="94.37" class="ty">int</tspan></text></svg></g></g><text class="qdbd-link" x="10" y="20">www.quickdatabasediagrams.com</text></svg>